<?xml version="1.0" encoding="UTF-8" standalone="no"?>
<!-- Created with Inkscape (http://www.inkscape.org/) -->

<svg
   xmlns:dc="http://purl.org/dc/elements/1.1/"
   xmlns:cc="http://creativecommons.org/ns#"
   xmlns:rdf="http://www.w3.org/1999/02/22-rdf-syntax-ns#"
   xmlns:svg="http://www.w3.org/2000/svg"
   xmlns="http://www.w3.org/2000/svg"
   version="1.1"
   width="744.09448"
   height="1052.3622"
   id="svg2">
  <defs
     id="defs4" />
  <metadata
     id="metadata7">
    <rdf:RDF>
      <cc:Work
         rdf:about="">
        <dc:format>image/svg+xml</dc:format>
        <dc:type
           rdf:resource="http://purl.org/dc/dcmitype/StillImage" />
        <dc:title></dc:title>
      </cc:Work>
    </rdf:RDF>
  </metadata>
  <g
     id="layer1">
    <path
       d="m 374.28125,312.6875 c -204.16922,0 -369.6875,165.51828 -369.6875,369.6875 0,204.16922 165.51828,369.6562 369.6875,369.6562 204.16922,0 369.6875,-165.48698 369.6875,-369.6562 0,-204.16922 -165.51828,-369.6875 -369.6875,-369.6875 z m -293.5,236.71875 c 61.21079,-0.9161 121.4873,37.89393 127.75,103.96875 l 165.75,0 165.75,0 c 6.26271,-66.07482 66.53921,-104.88485 127.75,-103.96875 3.01038,0.045 6.02256,0.16745 9.03125,0.40625 l 0,49.25 c -57.17624,0.90633 -91.48189,34.13723 -91.90625,83.28125 0.42436,49.14401 34.73001,82.40617 91.90625,83.3125 l 0,49.21875 C 612.62717,819.96948 546.60196,780.63689 540.03125,711.3125 l -165.75,0 -165.75,0 c -6.57071,69.32439 -72.56468,108.65698 -136.75,103.5625 l 0,-49.21875 c 57.17624,-0.90633 91.45063,-34.16849 91.875,-83.3125 -0.42437,-49.14402 -34.69876,-82.37492 -91.875,-83.28125 l 0,-49.25 c 3.00869,-0.2388 5.98963,-0.36115 9,-0.40625 z"
       id="path2985"
       style="fill:#ffffff;fill-opacity:1;fill-rule:evenodd;stroke:none" />
    <path
       d="M 64.285715,405.50502 375.35715,3.3621968 682.85716,405.50502 c 0,0 -124.86376,-134.45695 -309.28572,-133.57138 C 180.83698,272.85913 64.285715,405.50502 64.285715,405.50502 z"
       id="path2991"
       style="fill:#ffffff;fill-opacity:1;stroke:none" />
  </g>
</svg>
