<?xml version="1.0" encoding="UTF-8" standalone="no"?>
<!-- Created with Inkscape (http://www.inkscape.org/) -->

<svg
   xmlns:dc="http://purl.org/dc/elements/1.1/"
   xmlns:cc="http://creativecommons.org/ns#"
   xmlns:rdf="http://www.w3.org/1999/02/22-rdf-syntax-ns#"
   xmlns:svg="http://www.w3.org/2000/svg"
   xmlns="http://www.w3.org/2000/svg"
   version="1.1"
   width="744.09448"
   height="1052.3622"
   id="svg2">
  <defs
     id="defs4" />
  <metadata
     id="metadata7">
    <rdf:RDF>
      <cc:Work
         rdf:about="">
        <dc:format>image/svg+xml</dc:format>
        <dc:type
           rdf:resource="http://purl.org/dc/dcmitype/StillImage" />
        <dc:title></dc:title>
      </cc:Work>
    </rdf:RDF>
  </metadata>
  <g
     id="layer1">
    <path
       d="m 374.28125,312.6875 c -204.16922,0 -369.6875,165.51828 -369.6875,369.6875 0,204.16922 165.51828,369.6562 369.6875,369.6562 204.16922,0 369.6875,-165.48698 369.6875,-369.6562 0,-204.16922 -165.51828,-369.6875 -369.6875,-369.6875 z m 2,47.71875 c 129.35045,0 291.21799,108.66086 310.47493,260.18553 0,0 0.74166,6.7205 0.68167,6.66524 L 378.53125,1044.875 c -1.19717,3.5263 -6.26868,2.6553 -7.15615,-0.094 L 68.967767,625.6391 69.422213,619.27682 C 88.627834,467.69594 246.89778,360.40625 376.28125,360.40625 z M 150.84221,586.84598 c -28.36474,-1.45581 -60.632153,11.01637 -65.563585,33.31817 0.205907,0.24401 0.384136,0.51137 0.530189,0.79529 L 356.58772,1005.8098 216.68544,623.63117 c -0.13221,-0.46634 -0.18372,-0.95545 -0.15148,-1.43909 -7.54675,-27.18077 -33.08313,-33.67248 -65.69175,-35.3461 z m 308.00219,1.70418 c -40.05721,0 -56.33352,13.73386 -70.40007,34.48753 l -6.50255,380.17871 140.61878,-382.83113 0.0569,-0.19449 C 509.57807,596.25854 501.6929,588.55016 458.84435,588.55016 z m -157.9486,2.45634 c -24.59314,0.42975 -59.00988,9.361 -66.09301,32.81432 l 134.58315,379.53068 0.96468,-380.8366 C 362.0212,593.43575 326.31446,590.56232 300.8958,591.0065 z m 309.6964,0.11887 c -38.6214,0.0913 -51.8863,13.69947 -70.0593,33.30128 -0.02,0.29455 -0.0709,0.58701 -0.15148,0.87102 L 393.50603,1005.526 667.86682,619.44158 c 0.0986,-0.19785 0.44056,-0.3708 0.34083,-0.56806 -9.11777,-18.03393 -37.12744,-27.79658 -57.61545,-27.74815 z"
       id="path2985"
       style="fill:#ffffff;fill-opacity:1;fill-rule:evenodd;stroke:none" />
    <path
       d="M 64.285715,405.50502 375.35715,3.3621968 682.85716,405.50502 c 0,0 -124.86376,-134.45695 -309.28572,-133.57138 C 180.83698,272.85913 64.285715,405.50502 64.285715,405.50502 z"
       id="path2991"
       style="fill:#ffffff;fill-opacity:1;stroke:none" />
  </g>
</svg>
