<?xml version="1.0" encoding="UTF-8" standalone="no"?>
<!-- Created with Inkscape (http://www.inkscape.org/) -->

<svg
   xmlns:dc="http://purl.org/dc/elements/1.1/"
   xmlns:cc="http://creativecommons.org/ns#"
   xmlns:rdf="http://www.w3.org/1999/02/22-rdf-syntax-ns#"
   xmlns:svg="http://www.w3.org/2000/svg"
   xmlns="http://www.w3.org/2000/svg"
   version="1.1"
   width="744.09448"
   height="1052.3622"
   id="svg2">
  <defs
     id="defs4" />
  <metadata
     id="metadata7">
    <rdf:RDF>
      <cc:Work
         rdf:about="">
        <dc:format>image/svg+xml</dc:format>
        <dc:type
           rdf:resource="http://purl.org/dc/dcmitype/StillImage" />
        <dc:title></dc:title>
      </cc:Work>
    </rdf:RDF>
  </metadata>
  <g
     id="layer1">
    <path
       d="m 374.28125,312.6875 c -204.16922,0 -369.6875,165.51828 -369.6875,369.6875 0,204.16922 165.51828,369.6562 369.6875,369.6562 204.16922,0 369.6875,-165.48698 369.6875,-369.6562 0,-204.16922 -165.51828,-369.6875 -369.6875,-369.6875 z m 0,67.59375 c 149.78204,0 272.83601,114.46788 286.46875,260.6875 37.00375,13.04365 63.59375,49.31909 63.59375,92 0,53.65052 -42.06219,97.125 -93.9375,97.125 -17.1764,0 -33.27226,-4.76745 -47.125,-13.09375 l 0,-168.09375 C 593.74011,642.61982 605.4842,638.36517 618,636.65625 602.60146,515.77865 499.33984,422.3125 374.28125,422.3125 c -126.82496,0 -231.16758,96.14299 -244.25,219.5 14.17791,1.23406 27.47226,5.69594 39.15625,12.71875 l 0,168.09375 c -13.85274,8.32637 -29.9486,13.09375 -47.125,13.09375 -51.87532,0 -93.9375,-43.47448 -93.9375,-97.125 0,-40.92877 24.4841,-75.94102 59.125,-90.25 10.113,-149.72496 134.74197,-268.0625 287.03125,-268.0625 z"
       id="path2985"
       style="fill:#ffffff;fill-opacity:1;fill-rule:evenodd;stroke:none" />
    <path
       d="M 64.285715,405.50502 375.35715,3.3621968 682.85716,405.50502 c 0,0 -124.86376,-134.45695 -309.28572,-133.57138 C 180.83698,272.85913 64.285715,405.50502 64.285715,405.50502 z"
       id="path2991"
       style="fill:#ffffff;fill-opacity:1;stroke:none" />
    <g
       transform="translate(-36.549633,-84.298527)"
       id="g3058" />
  </g>
</svg>
