<?xml version="1.0" encoding="UTF-8" standalone="no"?>
<!-- Created with Inkscape (http://www.inkscape.org/) -->

<svg
   xmlns:dc="http://purl.org/dc/elements/1.1/"
   xmlns:cc="http://creativecommons.org/ns#"
   xmlns:rdf="http://www.w3.org/1999/02/22-rdf-syntax-ns#"
   xmlns:svg="http://www.w3.org/2000/svg"
   xmlns="http://www.w3.org/2000/svg"
   version="1.1"
   width="628.57141"
   height="954.28564"
   id="svg2">
  <defs
     id="defs4" />
  <metadata
     id="metadata7">
    <rdf:RDF>
      <cc:Work
         rdf:about="">
        <dc:format>image/svg+xml</dc:format>
        <dc:type
           rdf:resource="http://purl.org/dc/dcmitype/StillImage" />
        <dc:title></dc:title>
      </cc:Work>
    </rdf:RDF>
  </metadata>
  <g
     transform="translate(-59.285714,-58.249783)"
     id="layer1">
    <path
       d="m 59.285714,819.67836 314.285716,192.85704 314.28571,-191.42847 0,-762.857147 -628.571426,0 z"
       id="path3863"
       style="fill:#0b000b;fill-opacity:1;stroke:none" />
    <g
       transform="translate(3.776382,0.09642319)"
       id="g3831">
      <path
         d="m 196.30135,115.19315 c 20.85852,-0.14589 36.69123,3.33882 55.05332,6.31346 22.3169,3.58283 38.62833,14.93745 49.49747,33.33504 16.45166,53.58981 25.62359,63.50126 34.85026,73.74113 4.10351,-6.61174 2.47661,-11.86015 12.87945,-25.00127 5.16717,-16.14821 -2.54594,-20.17381 -8.33376,-26.01143 -5.41939,-2.78946 -8.0389,2.82069 -11.61675,5.55584 -6.53834,-3.65273 -2.72377,-11.07016 -2.52539,-17.1726 5.23037,-6.45353 10.76387,-9.87574 16.66752,-9.59645 11.59087,-2.09154 17.29755,-1.24098 25.25382,-1.51522 9.87627,1.40377 18.57538,3.98469 25.75889,8.08122 1.17877,10.30361 4.10394,21.91614 2.0203,31.56726 0.0156,21.19834 3.8359,26.41663 7.07107,34.09265 9.08159,-8.12064 16.82513,-18.34394 21.2132,-33.84011 0,0 4.79823,-28.78935 5.80838,-30.80966 0.48931,-0.97861 3.96099,-13.08291 11.05691,-19.57567 7.55328,-6.91124 14.70198,-13.25428 14.70198,-13.25428 l 22.47589,-11.61675 c 11.51659,-3.80876 21.72721,-9.44084 35.86042,-9.59645 12.32476,-0.61992 20.66635,0.35343 29.7995,1.01015 -7.23479,12.50503 -18.32506,18.68926 -29.7995,24.24366 7.93901,-0.58353 15.46197,0.0811 22.72843,1.51523 -1.77976,9.50028 -9.3696,13.19047 -19.1929,14.64721 6.18176,1.24978 11.83127,3.29794 16.66752,6.56599 -7.50912,5.46269 -15.10709,10.76987 -25.25381,11.61676 7.84613,2.89547 15.78629,5.74391 19.69797,10.6066 -9.15322,7.0023 -18.98071,5.91345 -28.78935,5.05076 6.57681,5.09402 12.98883,9.52894 20.20305,17.1726 -9.3171,2.59026 -18.1208,1.58669 -26.76904,-0.50508 4.31003,6.36393 9.18026,12.30771 16.16244,16.66752 -6.72647,3.59535 -15.33896,2.94716 -24.74874,0.50507 5.68781,4.54909 11.56847,8.85712 14.64722,16.66752 -8.24958,1.49664 -16.49916,0.32673 -24.74874,-1.51523 4.26947,4.29885 9.64029,7.67991 10.10152,15.15229 -8.20493,0.20278 -15.70104,-1.72089 -22.22335,-6.56599 3.68679,5.91649 6.58295,12.93988 8.5863,21.2132 -8.09326,-3.79322 -15.46861,-7.99667 -21.21321,-13.13198 4.46416,6.00731 8.41555,12.2069 7.57615,20.20305 -7.9052,0.0468 -12.86793,-6.15904 -18.18275,-11.61676 2.37631,8.80157 4.70632,17.59156 0.50508,24.74874 l -13.38453,-14.64721 c 1.68981,8.66745 1.05628,13.66871 -0.0244,16.91061 -6.52709,-2.47239 -10.71549,-6.55883 -11.0873,4.30259 -2.75091,20.23055 -5.12636,33.24208 -3.78807,51.51778 -3.79282,7.6263 -8.8362,11.22305 -15.65736,9.09138 0.62355,3.39657 -1.33426,4.58054 3.53553,11.61675 l 44.95179,1.01015 -0.12627,21.84456 -51.39151,-0.63135 c 0.20319,4.21768 -2.64516,8.99829 -3.78807,12.87944 -12.0783,4.30335 -26.57606,1.56204 -38.00699,1.01016 -5.54136,-7.00162 -4.27466,-10.37227 -5.17703,-14.89976 l -51.0127,-0.50507 0.12627,-18.81409 40.27983,-0.88389 c 2.17864,-2.195 3.15495,-4.06218 4.41942,-6.18718 0.0675,-1.97822 1.53179,-4.33524 -0.25254,-6.31346 -4.76914,-0.0614 -8.29577,-2.29723 -11.74303,-4.67195 -5.20294,-13.64503 -2.78688,-24.94575 -4.04061,-37.37564 l -0.50507,-14.64722 c -0.58793,-3.45268 -0.83866,-7.24256 -3.03046,-9.09137 -2.26238,2.30423 -4.34803,5.13864 -7.57614,4.54569 -0.70418,-5.17301 -0.6421,-11.4954 0,-18.68783 -3.47631,5.82785 -7.80601,10.16225 -12.62691,13.63706 -2.43281,-7.7445 -2.26666,-15.489 -1.01015,-23.2335 -4.39749,6.42868 -8.62476,13.16377 -14.64722,16.66751 -1.19833,-8.52688 -0.63855,-16.72411 3.53554,-24.24366 -5.23086,5.3288 -10.29452,11.49359 -16.16244,13.63706 -1.26594,-6.74528 0.42533,-13.12091 4.54568,-19.1929 -7.57614,2.55658 -15.15229,4.65518 -22.72843,4.54569 2.73382,-5.87252 5.72593,-11.61589 11.11168,-16.16244 -6.62902,3.13535 -13.88145,3.03616 -21.2132,2.52538 1.12631,-5.75224 2.4209,-11.39986 7.57614,-14.64721 -7.99728,-1.48757 -14.72808,-0.86434 -20.70813,1.01015 1.17937,-5.60857 4.1172,-10.90412 10.10153,-15.65736 -6.64976,-3.74866 -13.9007,-3.58965 -21.21321,-3.03046 3.41347,-5.67791 7.56156,-10.62119 14.64722,-12.62691 -9.07236,-2.83721 -16.67641,-5.91913 -23.73859,-9.09137 2.58998,-6.22495 12.2916,-7.33839 19.69798,-10.10153 -11.79717,-3.27379 -21.61529,-7.30743 -26.76905,-13.13198 6.7433,-2.82885 15.65316,-5.25148 27.7792,-7.07107 -10.90915,-2.2393 -23.78677,-4.52312 -29.42069,-8.08122 3.28531,-5.35712 8.34526,-6.81005 13.25825,-8.5863 -8.14419,-5.11949 -16.74076,-10.09612 -18.68782,-17.17259 z"
         id="path3007"
         style="fill:#ffffff;fill-opacity:1;stroke:none" />
      <path
         d="m 334.46429,169.32647 c 1.02276,-2.80392 1.92094,-5.64937 6.875,-7.14286 3.13251,-0.27926 6.27392,-0.58966 8.75,1.42857 0.90261,2.96618 -0.47484,4.79234 -1.875,6.60714 -4.39449,-1.27958 -8.56179,-3.74057 -13.75,-0.89285 z"
         id="path3009"
         style="fill:#ff0000;fill-opacity:1;stroke:none" />
      <path
         d="m 358.52679,166.60325 c 0.22411,1.98833 0.3267,4.00864 3.66071,5.17858 3.97026,0.80949 8.49019,0.51961 12.94643,0.35714 -1.77041,-2.75762 -3.03785,-5.34422 -7.07524,-7.56762 -4.43983,-0.91389 -8.81834,-1.28278 -9.5319,2.0319 z"
         id="path3011"
         style="fill:#000000;fill-opacity:1;stroke:none" />
    </g>
    <path
       d="m 346.11779,419.04686 c -0.5186,-0.004 -1.06088,0.0209 -1.63664,0.0724 -11.43271,4.14237 -21.2992,7.81659 -31.73348,10.7468 -10.84003,2.325 -23.41786,3.8157 -39.39526,3.64985 l 2.15805,2.14357 4.30161,4.63473 c 1.24972,1.42217 2.7561,2.45414 4.21472,3.56296 1.10887,0.0801 2.26548,0.13733 3.80916,0 1.08391,1.74568 2.42967,2.83153 3.72229,4.0554 1.30478,1.21869 2.73984,2.33281 4.80854,2.89672 2.16401,0.31807 4.23113,0.9639 6.70589,0.2462 -0.37467,0.88828 -0.17312,1.71304 0.33312,2.49118 0.47933,0.62036 1.47355,1.64407 3.63536,2.31737 2.19642,0.88488 4.67521,0.71858 7.19833,0.40554 -0.0807,1.07593 -0.3029,2.15391 0.24622,3.22984 1.44942,2.09762 3.80333,2.88771 6.45967,3.22983 2.45831,-0.26844 4.69225,0.27467 7.44455,-1.07178 -0.55507,0.63805 -0.56173,1.60305 -0.57934,2.56358 2.46285,2.82665 4.5606,2.3488 6.70587,2.31737 2.42296,-0.89807 4.96601,-1.40891 6.86521,-3.98298 4.03497,2.20224 8.17271,4.35529 13.8318,5.47479 2.2346,-0.0256 4.47128,0.23382 6.70589,-0.50693 1.10889,0.18496 1.83013,0.70859 2.05665,1.66561 1.24146,0.69052 2.49532,0.66026 3.73677,0.36209 l 0.24621,19.53832 -6.9521,-0.13035 c -3.15228,-0.14319 -6.20102,-0.74398 -9.02326,-2.31738 -2.28658,-1.00779 -4.40929,-2.1667 -4.63474,-5.12717 0.8227,-3.24259 3.02543,-2.33265 4.88097,-2.47669 2.30169,1.55318 5.3622,2.19376 9.42879,1.65113 1.66576,-0.53294 3.17569,-1.19208 3.80918,-2.56359 0.71835,-1.36345 0.57059,-2.87161 -0.82557,-4.56232 -2.02167,-1.56504 -4.36023,-2.07854 -6.70588,-2.56359 -3.30806,0.34978 -4.02456,1.60923 -5.61962,2.56359 0,0 -4.35926,-0.2591 -6.25689,0 -1.89763,0.25909 -4.92442,1.37594 -4.92442,1.37594 -2.00466,0.66012 -3.95941,3.09602 -4.38851,5.3734 -0.4291,2.27737 0.32748,5.02375 1.08626,6.50311 2.30651,5.07182 6.70433,5.65607 10.42817,7.69077 -1.3718,1.4496 -5.3928,6.2174 -3.93954,11.38407 1.45325,5.16668 5.32712,9.88169 13.33936,12.51379 -3.74923,3.63974 -4.51206,7.38385 -4.17126,11.23924 0.37991,4.29798 4.09913,7.43664 9.38534,10.76129 0,0 -1.03848,1.6607 -0.99937,4.59128 0.0391,2.93058 2.16025,5.27471 5.14166,7.34316 -1.67054,1.15896 -2.99019,3.01958 -3.01258,5.95275 -0.0224,2.93317 1.89559,4.51459 3.83814,5.22856 -1.28394,1.42363 -2.51031,2.29943 -2.62152,5.15615 -0.11121,2.85672 2.42843,4.92845 4.37404,5.90928 -2.51626,0.70628 -2.7291,2.48773 -2.80982,4.33059 0.22665,1.92982 1.51203,3.24207 3.20087,4.02643 l 0.029,2.82429 c 0.67213,0.48684 2.2623,0.8821 3.31674,0.95592 0.0183,0.002 0.04,-7.1e-4 0.058,0 0.12016,0.003 0.26035,0.01 0.40554,0 1.05422,-0.0714 2.65617,-0.46696 3.33121,-0.95592 l 0.029,-2.82429 c 1.68884,-0.78436 2.97422,-2.09661 3.20086,-4.02643 -0.0807,-1.84286 -0.29355,-3.62431 -2.80981,-4.33059 1.94561,-0.98083 4.48525,-3.05256 4.37403,-5.90928 -0.11119,-2.85672 -1.33758,-3.73252 -2.62152,-5.15615 1.94255,-0.71397 3.86053,-2.29539 3.83814,-5.22856 -0.0224,-2.93317 -1.34202,-4.79379 -3.01258,-5.95275 2.98142,-2.06845 5.10254,-4.41258 5.14167,-7.34316 0.0391,-2.93058 -0.99936,-4.59128 -0.99936,-4.59128 5.2862,-3.32465 9.00542,-6.46331 9.38534,-10.76129 0.34079,-3.85539 -0.42203,-7.5995 -4.17127,-11.23924 8.01224,-2.6321 11.88609,-7.34711 13.33936,-12.51379 1.45325,-5.16667 -2.56774,-9.93447 -3.93953,-11.38407 3.72384,-2.0347 8.12165,-2.61895 10.42816,-7.69077 0.75878,-1.47936 1.51537,-4.22574 1.08627,-6.50311 -0.42911,-2.27738 -2.38386,-4.71328 -4.38852,-5.3734 0,0 -3.02679,-1.11685 -4.9244,-1.37594 -1.89764,-0.2591 -6.2569,0 -6.2569,0 -1.59507,-0.95436 -2.31158,-2.21381 -5.61963,-2.56359 -2.34565,0.48505 -4.68422,0.99855 -6.70588,2.56359 -1.39617,1.69071 -1.54392,3.19887 -0.82556,4.56232 0.63347,1.37151 2.1434,2.03065 3.80917,2.56359 4.06658,0.54263 7.1271,-0.0979 9.42879,-1.65113 1.85555,0.14404 4.05827,-0.7659 4.88096,2.47669 -0.22544,2.96047 -2.34814,4.11938 -4.63474,5.12717 -2.82222,1.5734 -5.87097,2.17419 -9.02325,2.31738 l -6.95211,0.13035 0.24622,-19.53832 c 1.24145,0.29817 2.49532,0.32843 3.73676,-0.36209 0.22654,-0.95702 0.94777,-1.48065 2.05667,-1.66561 2.2346,0.74075 4.47128,0.48135 6.70588,0.50693 5.65909,-1.1195 9.79683,-3.27255 13.8318,-5.47479 1.8992,2.57407 4.44226,3.08491 6.8652,3.98298 2.14528,0.0314 4.24304,0.50928 6.70589,-2.31737 -0.0177,-0.96053 -0.0243,-1.92553 -0.57934,-2.56358 2.7523,1.34645 4.98624,0.80334 7.44455,1.07178 2.65633,-0.34212 5.01023,-1.13221 6.45967,-3.22983 0.54911,-1.07593 0.32693,-2.15391 0.24621,-3.22984 2.52313,0.31304 5.0019,0.47934 7.19833,-0.40554 2.16181,-0.6733 3.15604,-1.69701 3.63537,-2.31737 0.50624,-0.77814 0.7078,-1.6029 0.33312,-2.49118 2.47475,0.7177 4.54188,0.0719 6.70589,-0.2462 2.06871,-0.56391 3.50375,-1.67803 4.80854,-2.89672 1.29262,-1.22387 2.63837,-2.30972 3.72228,-4.0554 1.54369,0.13733 2.70028,0.0801 3.80917,0 1.4586,-1.10882 2.965,-2.14079 4.21471,-3.56296 l 4.30162,-4.63473 2.15805,-2.14357 c -15.97741,0.16585 -28.55524,-1.32485 -39.39526,-3.64985 -10.43428,-2.93021 -20.30075,-6.60443 -31.73348,-10.7468 -0.57576,-0.0515 -1.11804,-0.0766 -1.63664,-0.0724 -3.6302,0.0294 -6.03303,1.53131 -9.61709,5.99618 -2.35695,5.05157 -2.54722,9.40879 1.11524,14.12148 -2.73548,3.44508 -5.59796,6.4325 -10.80473,8.95084 l 0.21725,-3.91056 c 1.28649,-2.5496 3.13661,-4.35345 3.08499,-8.24114 -0.0539,-3.11338 -1.28177,-5.44896 -4.28713,-8.09632 -2.08403,-1.25275 -4.06179,-2.67314 -7.16936,-2.31737 -3.09918,-0.34969 -5.07409,1.06657 -7.15488,2.31737 -3.00535,2.64736 -4.23313,4.98294 -4.28713,8.09632 -0.0516,3.88769 1.79852,5.69154 3.08501,8.24114 l 0.21724,3.91056 c -5.20675,-2.51834 -8.06925,-5.50576 -10.80473,-8.95084 3.66247,-4.71269 3.47219,-9.06991 1.11523,-14.12148 -3.58404,-4.46487 -5.98688,-5.96677 -9.61707,-5.99618 z m 22.17431,78.89192 0.53591,15.14981 c 0,0 -11.14011,-1.58511 -11.00752,-7.95148 0.13261,-6.36636 10.47161,-7.19833 10.47161,-7.19833 z m 10.55852,0 c 0,0 10.33901,0.83197 10.47161,7.19833 0.13259,6.36637 -11.00751,7.95148 -11.00751,7.95148 l 0.5359,-15.14981 z m -9.73295,25.15794 0.20276,12.4269 c 0,0 -6.33122,-1.62098 -6.28585,-6.0831 0.0453,-4.46212 6.0831,-6.3438 6.0831,-6.3438 z m 8.90739,0 c 0,0 6.03772,1.88168 6.08309,6.3438 0.0454,4.46212 -6.28586,6.0831 -6.28586,6.0831 l 0.20277,-12.4269 z m -8.57426,20.24802 0.15931,4.70715 c 0,0 -1.57945,-0.34551 -1.82493,-2.27392 -0.24547,-1.92842 1.66562,-2.43323 1.66562,-2.43323 z m 8.24114,0 c 0,0 1.91109,0.50481 1.6656,2.43323 -0.24548,1.92841 -1.82492,2.27392 -1.82492,2.27392 l 0.15932,-4.70715 z"
       id="path3015"
       style="fill:#ffffff;fill-opacity:1;stroke:#000000;stroke-width:0.46347377px;stroke-linecap:butt;stroke-linejoin:miter;stroke-opacity:1" />
    <path
       d="m 121.07143,467.36218 0,72.14286 250,151.42857 255,-147.14286 0,-71.42857 -255,142.14286 z"
       id="path3836"
       style="fill:#a50000;fill-opacity:1;stroke:none" />
    <path
       d="m 121.07143,589.1479 0,72.14286 250,151.42857 255,-147.14286 0,-71.42857 -255,142.14286 z"
       id="path3836-4"
       style="fill:#a50000;fill-opacity:1;stroke:none" />
    <path
       d="m 121.07143,714.14789 0,72.14286 250,151.42857 255,-147.14286 0,-71.42857 -255,142.14286 z"
       id="path3836-0"
       style="fill:#a50000;fill-opacity:1;stroke:none" />
  </g>
</svg>
