<?xml version="1.0" encoding="UTF-8" standalone="no"?>
<!-- Created with Inkscape (http://www.inkscape.org/) -->
<svg
   xmlns:svg="http://www.w3.org/2000/svg"
   xmlns="http://www.w3.org/2000/svg"
   version="1.0"
   width="380"
   height="642"
   id="svg7877">
  <defs
     id="defs7879" />
  <path
     d="M 3,581.05605 L 3,208.57139 C 88.79504,149.61797 141.16999,85.736745 190.24199,2.8689514 C 239.31399,85.736745 291.68894,149.61797 377.48398,208.57139 L 377.48398,581.05605 C 268.47315,659.23198 109.88871,657.5691 3,581.05605 z "
     style="fill:#fa1f1d;fill-opacity:1;fill-rule:evenodd;stroke:none;stroke-width:1px;stroke-linecap:butt;stroke-linejoin:miter;stroke-opacity:1"
     id="path2216" />
  <path
     d="M 190.24234,105.55847 C 144.80127,165.27784 93.355606,226.81621 26.929596,271.92298 L 26.929596,221.93325 C 101.37594,160.99957 151.41565,100.34947 190.24234,35.503811 C 229.06903,100.3495 279.10874,160.9996 353.55508,221.93328 L 353.55508,271.92301 C 287.12907,226.81624 235.68341,165.27784 190.24234,105.55847 z "
     style="fill:#f6d140;fill-opacity:1;fill-rule:evenodd;stroke:none;stroke-width:1px;stroke-linecap:butt;stroke-linejoin:miter;stroke-opacity:1"
     id="path3238" />
  <path
     d="M 26.929596,339.92298 L 26.929596,289.92298 C 93.355606,244.81621 144.80127,183.27784 190.24234,123.55847 C 235.68341,183.27784 287.12907,244.81624 353.55508,289.92301 L 353.55508,339.92301 C 287.12907,294.81624 235.68341,243.27784 190.24234,183.55847 C 144.80127,243.27784 93.355606,294.81621 26.929596,339.92298 z "
     style="fill:#f6d140;fill-opacity:1;fill-rule:evenodd;stroke:none;stroke-width:1px;stroke-linecap:butt;stroke-linejoin:miter;stroke-opacity:1"
     id="path2336" />
  <path
     d="M 190.25537,261.73157 C 226.12063,308.86625 274.24389,347.39287 322.02252,382.06552 C 267.63947,477.55157 121.08601,478.35781 58.977029,382.06552 C 106.75566,347.39287 154.39011,308.86625 190.25537,261.73157 z M 190.25368,201.703 C 235.69475,261.42237 287.64394,310.94121 354.06995,356.04798 L 354.06795,402.04783 C 257.4498,516.53646 119.70332,513.63057 26.931595,402.04783 L 26.929596,356.04798 C 93.355606,310.94121 144.81261,261.42237 190.25368,201.703 z "
     style="fill:#f6d140;fill-opacity:1;fill-rule:evenodd;stroke:none;stroke-width:1px;stroke-linecap:butt;stroke-linejoin:miter;stroke-opacity:1"
     id="path2274" />
  <path
     d="M 26.931595,416.04783 L 26.931595,460.04783 C 119.70332,553.64693 257.4498,552.60916 354.06795,460.04783 L 354.06795,416.04783 C 257.4498,527.20415 119.70332,523.7017 26.931595,416.04783 z "
     style="fill:#f6d140;fill-opacity:1;fill-rule:evenodd;stroke:none;stroke-width:1px;stroke-linecap:butt;stroke-linejoin:miter;stroke-opacity:1"
     id="path2226" />
  <path
     d="M 26.931595,516.04783 L 26.931595,472.04783 C 119.70332,565.64693 257.4498,564.60916 354.06795,472.04783 L 354.06795,516.04783 C 257.4498,592.47066 119.70332,593.78592 26.931595,516.04783 z "
     style="fill:#f6d140;fill-opacity:1;fill-rule:evenodd;stroke:none;stroke-width:1px;stroke-linecap:butt;stroke-linejoin:miter;stroke-opacity:1"
     id="path2209" />
  <path
     d="M 26.931595,572.04783 L 26.931595,528.04783 C 119.70332,605.78592 257.4498,604.47066 354.06795,528.04783 L 354.06795,572.04783 C 258.401,634.20266 120.63771,635.77011 26.931595,572.04783 z "
     style="fill:#f6d140;fill-opacity:1;fill-rule:evenodd;stroke:none;stroke-width:1px;stroke-linecap:butt;stroke-linejoin:miter;stroke-opacity:1"
     id="path2220" />
  <path
     d="M 284.56577,374.85477 L 288.4628,386.5845 L 300.82268,386.6661 L 290.87128,393.99708 L 294.61309,405.77725 L 284.56577,398.5783 L 274.51845,405.77725 L 278.26025,393.99708 L 268.30886,386.6661 L 280.66875,386.5845 L 284.56577,374.85477 z "
     style="fill:#f6d140;fill-opacity:1;stroke:none;stroke-width:1.70000005;stroke-linecap:round;stroke-linejoin:miter;stroke-miterlimit:4;stroke-dashoffset:0;stroke-opacity:1"
     id="path2166" />
  <path
     d="M 989.8064,247.0305 C 989.2064,254.1305 987.4064,261.2305 986.6064,268.6305 L 987.7064,268.3305 C 990.6064,264.9305 998.3064,263.2305 996.2064,257.6305 C 996.0064,257.2305 996.0064,256.9305 995.8064,256.4305 C 995.9064,256.0305 996.4064,256.0305 996.7064,256.3305 C 998.2064,258.5305 999.7064,260.9305 1001.6064,262.9305 L 1001.6064,263.5305 C 1000.7064,264.0305 1000.1064,262.8305 999.1064,262.8305 L 996.1064,263.9305 L 980.5064,275.8305 L 980.2064,275.4305 L 984.1064,249.4305 C 982.6064,248.9305 981.4064,251.0305 979.9064,251.6305 C 977.3064,254.7305 970.2064,256.3305 972.0064,261.6305 C 972.1064,262.2305 972.6064,262.6305 972.4064,263.3305 L 971.5064,263.3305 C 969.8064,260.8305 967.9064,258.2305 966.3064,255.8305 C 967.8064,255.3305 969.5064,257.4305 971.3064,256.1305 L 984.3064,246.1305 C 985.3064,245.1305 985.5064,243.2305 984.8064,242.1305 C 984.4064,241.7305 984.1064,241.0305 984.7064,240.6305 C 986.8064,242.0305 987.7064,245.0305 989.8064,247.0305 z "
     style="fill:#ffffff"
     id="path3322" />
  <path
     d="M 208.30211,317.66843 C 207.96806,318.50355 208.08291,319.78406 207.13642,320.17379 C 206.80238,320.22946 206.24565,320.50088 206.02293,319.99981 C 205.24349,318.60794 203.62544,318.38872 202.1779,318.55574 C 198.39203,319.33519 194.28253,320.17031 190.05127,319.66924 C 186.37674,319.33519 182.20113,317.87721 178.63796,319.54745 C 177.07907,320.38257 175.57238,322.00062 175.34968,323.67085 C 175.12698,326.00919 176.40404,328.24661 178.46398,329.36011 C 180.13422,329.91685 181.80097,330.52927 183.24852,331.58709 C 183.3042,331.92114 183.24852,332.2517 183.52689,332.47441 C 184.41769,332.9198 184.41768,331.52446 185.19713,331.41311 C 185.30848,331.41311 185.59728,331.36091 185.5973,331.63929 C 184.59515,333.92195 183.86094,336.5317 184.36201,339.25975 C 184.41769,339.42678 184.30633,339.59381 184.08364,339.53813 C 183.41555,339.53813 182.58392,339.15189 182.36121,338.37244 C 181.80446,337.64867 182.1907,336.70915 182.69177,336.04106 C 183.19285,334.76055 182.86229,333.36868 182.08283,332.42221 C 180.07855,330.36225 176.96771,331.58014 174.74074,332.24823 C 170.62082,333.97414 166.65747,336.03411 162.6489,337.81569 C 162.48188,337.92704 162.76721,337.97924 162.82288,338.14626 L 162.59671,338.37244 C 160.64809,339.43026 158.70643,340.42893 156.64648,341.20837 C 156.47945,341.31972 156.69867,341.48326 156.69867,341.53894 C 154.41601,342.59675 151.96633,343.48755 149.46097,344.04429 L 149.1304,344.27047 C 149.24175,344.4375 149.50968,344.55233 149.28699,344.77502 C 147.06,345.44312 144.7182,346.21561 142.37985,346.54965 C 142.10148,346.60533 141.88225,346.82803 142.04928,347.1064 C 142.99575,348.05287 144.27976,348.05635 145.05919,349.00282 C 146.00566,350.11631 147.3349,350.62087 148.78243,350.34249 L 149.73934,351.12541 C 150.51879,351.51514 151.41305,351.23329 152.19251,351.17761 C 152.97195,351.62301 153.75139,352.29458 154.69787,352.23891 C 157.2589,352.18323 159.47894,351.40726 161.76159,350.79485 C 162.70806,350.51647 163.81806,350.18242 164.87589,350.51647 C 166.32343,351.18457 167.67005,350.22767 168.8949,349.83794 C 169.73002,350.28333 170.6208,350.79484 171.67863,350.51647 C 172.6251,351.24024 173.95435,351.56734 175.1235,351.17761 C 175.62457,351.51166 176.06649,351.61953 176.56756,351.78655 C 177.06864,351.84222 177.62191,351.44902 178.01162,351.83874 C 178.62405,352.56252 179.75145,351.78656 180.3082,352.62167 C 180.80928,353.01139 181.64438,352.91048 182.25682,352.74346 C 182.64654,353.3002 183.36337,353.45331 183.75307,353.78736 C 183.58605,354.51113 183.47121,355.18271 183.52689,355.96215 C 182.52475,356.90862 181.30687,357.74026 180.3604,358.79808 C 179.24691,360.24562 177.35397,361.64792 177.85504,363.65221 C 178.13341,364.3203 178.86065,364.48038 179.47308,364.59172 C 179.64011,365.09279 179.85933,365.59387 179.80365,365.98359 C 175.62805,367.82085 171.67515,370.88991 168.66872,374.78714 C 168.279,375.06551 168.27554,375.79276 167.8858,375.84844 C 164.76802,380.30241 163.10126,385.53582 162.82288,391.15896 C 162.71154,392.04976 161.53194,391.37818 161.03086,391.76791 C 159.75034,392.15763 160.02872,393.65737 159.08224,394.32546 C 158.35847,395.04923 158.30978,395.99917 158.14273,397.057 C 156.91789,397.89212 156.92484,399.61456 157.20323,401.00642 C 156.92485,401.73019 156.85873,402.45396 157.08144,403.2334 C 157.24846,403.79015 157.74953,404.17291 157.91656,404.72966 L 157.35981,404.72966 C 154.9658,404.56264 153.30252,402.07119 152.52308,400.06691 C 153.58089,399.45449 154.53083,398.38275 154.69787,397.21358 L 155.63738,395.9957 C 156.0271,395.27193 156.14193,394.32547 155.86355,393.49034 C 156.25328,392.93359 156.46901,392.32118 156.52469,391.54173 C 156.52469,390.59526 155.85313,389.82277 155.18502,389.21035 C 155.18502,388.26388 154.47516,387.53663 153.86275,387.03556 C 153.86275,386.86854 153.97408,386.75718 154.14112,386.75719 C 155.81136,387.81501 157.14407,389.26602 158.64729,390.60222 C 159.09268,385.31313 161.47973,380.79653 164.31914,376.50957 C 165.37696,375.00636 166.54266,373.49967 167.71181,372.1078 L 167.65962,372.0556 C 165.48831,371.49885 163.15347,371.61021 160.92647,371.77723 C 155.19198,372.44532 150.28566,375.39955 145.9987,379.24111 C 144.88521,380.46595 143.77173,381.743 143.49334,383.19053 C 145.05223,383.13486 146.55892,382.91563 148.17349,383.13834 C 148.34052,383.52806 147.84294,383.9665 147.56455,384.35622 L 145.94651,384.5302 L 144.88521,384.47801 C 143.99441,384.47801 143.16277,384.74246 142.60603,385.52191 C 141.49253,385.68893 140.386,386.13433 139.99628,387.19215 L 138.76099,388.37523 L 138.27384,389.69751 C 137.21602,390.53262 136.65927,391.6496 136.6036,392.98579 L 136.25564,393.21197 C 135.19782,394.21411 135.36485,395.88436 135.69889,397.10919 C 135.25349,397.61026 135.14215,398.22269 134.86377,398.77943 C 134.64107,400.1713 135.42053,401.16648 135.97726,402.2243 C 135.86591,403.78319 136.64883,404.95584 137.59531,406.06933 C 137.53963,406.84878 138.09988,407.40901 138.37823,407.96575 C 137.98851,409.13492 138.54874,410.5755 138.04766,411.68899 C 137.76929,412.91383 138.16248,414.08649 138.83059,414.97727 C 138.88626,416.20212 139.10202,417.54874 140.04847,418.43954 L 139.82229,418.82231 C 139.71095,419.65742 138.0442,420.38467 138.93498,421.27547 C 139.7701,421.49817 140.93928,420.99362 141.44034,421.88441 C 141.94141,422.49683 142.6617,422.94223 142.60603,423.83302 C 143.1071,425.00219 144.39111,425.44759 145.33757,426.06001 C 145.39324,426.9508 145.95,427.72329 146.72943,428.11301 C 147.28618,428.66976 148.62239,428.23827 148.67804,429.2961 C 149.34614,430.74364 151.01986,431.30038 152.52308,431.52308 L 153.41039,432.3582 C 154.41253,433.0263 155.63739,432.91494 156.75087,432.91495 C 157.25194,433.249 157.8087,433.41602 158.42111,433.4717 C 159.92432,433.52737 161.20832,433.08197 162.54451,433.4717 C 163.49098,433.41602 164.43399,432.84536 165.10207,432.01024 C 169.44469,432.67833 174.11787,433.41602 178.51618,432.3582 L 178.79455,432.51479 C 178.62753,434.40773 177.85504,436.07797 177.29829,437.80388 L 177.29829,438.20404 C 180.41607,437.14622 183.36337,435.69868 186.25843,434.02844 C 191.04645,431.35606 195.22207,426.84641 197.67173,422.05839 L 197.61954,421.50165 C 197.11847,421.33462 196.6174,421.43554 196.22767,421.65823 C 189.43537,423.60685 181.68963,422.15931 175.45407,419.98799 L 175.07131,419.9358 C 175.68373,422.16278 176.6302,424.27146 177.57667,426.44277 L 177.40268,426.61676 C 174.7303,426.72811 172.16926,426.44626 169.88661,425.55546 L 169.66043,424.49416 C 170.1615,423.32499 169.8866,421.88094 169.32986,420.82311 C 169.88661,419.5426 169.38553,417.87931 168.49474,416.8215 L 168.33815,415.37744 L 167.71181,414.03777 C 167.21074,413.14697 165.98591,412.85816 166.04158,411.68899 C 166.654,410.85387 167.65615,410.36671 168.54693,409.80997 L 168.9471,409.80997 C 172.9,414.65367 178.01164,418.26903 183.85746,419.8836 C 191.20652,421.94357 199.83956,420.6039 206.07513,416.87369 L 208.35431,415.20345 C 210.58129,413.58889 212.64473,411.36538 214.42632,409.30542 C 216.31926,406.35466 217.82247,403.4039 218.8803,400.1191 L 218.8281,399.94512 C 220.44267,394.489 220.22691,388.14558 218.44534,382.91216 L 218.60192,382.80777 C 219.27002,383.08614 219.83026,383.40627 220.49834,383.57329 C 220.83239,384.35274 221.61185,385.24353 222.44695,385.52191 C 223.28207,386.02298 224.22506,385.68893 225.00451,385.52191 L 227.45767,388.42743 C 228.34847,389.03985 228.23713,390.15334 228.84954,390.93279 C 229.79601,391.26683 229.96651,392.32465 230.74595,392.8814 C 232.08215,392.77005 232.86506,394.09929 234.03424,394.37766 C 235.8715,393.26416 237.75053,392.26897 239.25374,390.65441 L 238.76658,388.7058 L 238.97536,387.87068 C 238.69699,387.03556 238.09155,386.20044 237.47911,385.64369 C 238.1472,384.47453 236.59526,383.91778 236.26122,383.13834 C 236.20555,382.35889 236.41434,381.74646 236.74838,381.18972 C 236.9154,380.63298 236.80406,380.02403 237.02675,379.46729 C 237.91755,379.18892 238.59608,378.18329 238.81878,377.2925 C 239.04148,376.8471 238.64829,376.29035 238.87097,375.90063 C 240.54121,375.23254 242.21493,374.22692 243.27275,372.61235 C 245.22136,370.05131 245.60762,365.88267 243.88169,363.04327 C 241.93308,359.92549 238.53694,358.08822 234.69538,358.5893 C 233.86026,358.1439 232.75024,358.08474 231.85945,358.36312 L 230.74595,358.24133 C 230.07786,358.24133 229.56636,358.86766 229.2323,359.42442 C 228.67555,359.25739 228.02137,359.36526 227.63165,359.75498 C 227.18626,360.20038 227.00879,360.8128 226.95312,361.42522 C 226.95312,362.48304 227.2976,363.31469 227.91003,363.98278 C 227.63165,365.09627 227.2976,366.20629 227.35328,367.37545 C 227.24193,368.09922 227.62817,368.71165 227.40548,369.32406 C 227.23845,369.43541 227.00533,369.66855 226.72694,369.44585 L 222.72533,364.03497 L 222.77752,363.37384 C 222.3878,362.70574 221.99461,361.87409 221.15948,361.6514 C 221.15948,361.09466 220.88111,360.70145 220.60273,360.31173 C 219.43356,359.08689 218.09738,357.91425 216.7055,357.02345 C 214.92392,357.96992 213.26758,359.08688 211.76438,360.31173 L 211.69479,360.5901 L 212.87787,363.09546 L 212.37332,364.48733 C 212.65169,364.93273 212.75608,365.54862 213.31283,365.827 C 213.75823,365.827 213.76866,366.43247 213.71299,366.76651 C 213.99137,367.49028 214.3254,368.32887 215.10486,368.66293 C 215.32756,369.10832 215.82862,369.38669 215.66161,369.77642 L 215.43543,369.77642 C 214.87868,368.7186 213.82086,368.0505 212.65169,368.10618 L 211.41641,367.14927 C 210.91534,366.8709 210.25072,366.99616 209.69398,367.21887 L 208.24992,366.59253 C 207.35912,366.59253 206.53095,366.76998 205.91854,367.27106 L 204.2483,366.59253 C 203.85858,366.2028 203.187,366.16104 203.187,365.54863 C 203.24268,365.1589 203.62544,364.6474 204.12651,364.87009 C 204.79461,364.64739 205.62626,364.30987 205.84895,363.53042 C 206.23867,359.96724 202.50848,357.79593 200.28148,355.4576 C 200.22581,354.90085 200.0588,354.29191 200.00311,353.73516 C 200.72688,353.62381 200.89392,352.39549 201.67335,352.95224 C 202.2301,353.23061 202.68593,352.95224 203.187,352.67386 C 203.79943,352.95224 204.73893,352.90005 205.24001,352.3433 C 206.07513,352.28762 207.13294,352.40246 207.74537,351.73435 L 208.63268,351.90834 C 209.35645,351.90834 209.91321,351.62996 210.30292,351.07322 C 211.30506,351.18457 212.14019,350.84703 212.80828,350.29029 L 215.03527,349.50737 L 217.48843,350.95143 C 218.32355,351.28548 219.16217,351.95009 220.21997,351.56037 C 221.72318,351.22632 223.27859,351.73088 224.72613,352.06492 C 226.89744,352.51032 229.28799,352.4616 231.18091,351.40379 L 232.85115,351.40379 C 233.96465,351.40379 234.86588,351.07321 235.75667,350.51647 C 237.03719,350.29377 238.31074,350.01191 239.20154,348.89843 C 240.37071,348.45303 241.5503,348.17118 242.38544,347.00201 C 242.60813,346.72364 242.27408,346.66449 242.10706,346.49746 C 239.71305,346.27476 237.37124,345.9442 235.19993,345.33177 L 234.86936,345.0534 L 235.35651,344.54885 C 232.5171,343.60238 229.56982,342.87513 226.95312,341.53894 C 226.95312,341.37191 227.2976,341.26753 227.07491,341.15617 C 224.79225,340.09835 222.49568,339.04054 220.32436,337.81569 L 220.39395,337.53732 C 217.33184,336.08978 214.26973,334.25599 211.20763,332.75278 C 208.98065,331.52794 205.91853,330.18827 203.41318,331.69148 C 202.18834,332.5266 201.11661,333.97415 201.1166,335.58871 C 201.06093,336.53518 201.7325,337.30766 201.34278,338.19846 C 201.00873,338.92223 200.34413,339.14841 199.62035,339.25975 C 198.89658,339.3711 198.06147,339.26671 197.67173,338.59862 C 195.66745,335.98191 196.172,332.24475 194.27906,329.51669 C 192.60882,328.01348 190.04779,327.45673 187.87648,328.12482 L 184.81437,328.45539 L 183.97925,328.95994 L 183.02234,328.12482 C 182.40992,328.01348 181.63745,328.0761 181.24771,327.46369 C 180.74664,327.01829 180.35343,326.46154 180.46479,325.79345 C 180.96586,324.56861 182.4134,324.61384 183.52689,324.55817 C 188.14789,325.17059 192.93244,326.24232 197.77612,325.46288 C 199.61339,325.24018 201.17229,324.27979 203.06522,324.55817 C 204.45708,324.89222 205.69583,325.84912 207.31041,325.51508 C 209.92712,324.56861 210.64394,321.49606 210.75528,318.9907 C 210.19853,319.04638 209.81576,319.60312 209.25902,319.54745 C 208.98065,318.9907 208.85885,318.28085 208.30211,317.66843 z M 187.42412,333.03115 C 188.09221,333.3652 188.15485,334.24904 188.15485,335.08416 C 187.93215,336.25333 187.81036,337.53732 186.91957,338.37244 C 186.36283,336.70221 186.70035,334.53437 187.42412,333.03115 z M 239.98447,364.8179 C 240.54123,365.54167 240.70476,366.43594 240.59341,367.27106 C 240.31503,366.99268 240.0993,366.59949 239.93227,366.20976 C 240.0993,365.82005 239.87312,365.15194 239.98447,364.8179 z M 230.41539,374.54356 C 230.55457,374.55052 230.69028,374.62359 230.74595,374.73494 L 232.41619,375.62226 L 233.80806,376.179 C 233.47401,376.8471 233.12953,377.62307 233.12953,378.45819 C 232.62846,378.79224 232.52058,378.07542 232.24221,377.79705 L 230.06742,374.73494 C 230.1231,374.59576 230.2762,374.5366 230.41539,374.54356 z M 145.28537,389.14076 C 144.61728,391.64612 143.61861,394.16192 143.28456,396.77862 C 143.06185,398.17049 143.11406,399.78506 143.05838,401.2326 C 142.50164,401.62231 142.00057,402.29389 141.66652,402.85064 C 140.6087,402.29389 141.78135,400.95422 141.05758,400.1191 L 140.50083,399.05781 C 140.89054,398.22269 140.77572,397.16487 140.55302,396.27407 C 141.38814,395.38328 141.66304,394.26631 141.44034,392.98579 C 142.10845,392.3177 142.6617,391.59044 142.60603,390.53262 C 143.10709,390.25425 143.66385,389.97936 143.99789,389.36694 C 144.38761,389.36694 144.83997,389.36346 145.28537,389.14076 z M 163.32744,397.56155 L 163.43183,397.61374 C 163.71022,399.06128 164.20779,400.44967 164.59751,401.84154 C 164.04076,402.45396 163.26828,402.95503 162.54451,403.2334 C 161.59804,402.84369 162.58975,402.06076 162.42272,401.33699 C 162.53408,400.55755 162.2557,399.8964 162.14435,399.28398 L 163.32744,397.56155 z M 142.72782,412.41972 C 143.06185,412.41973 143.27412,412.4754 143.44115,412.69809 C 143.44114,412.9208 143.45159,413.02518 143.28456,413.08086 C 143.00618,412.85816 142.78349,412.69809 142.72782,412.41972 z M 162.59671,415.42963 L 163.88418,416.31695 C 163.77282,417.20775 164.04773,418.09853 164.49312,418.82231 L 165.15426,419.65742 C 164.54183,420.71525 164.87937,422.10363 165.38044,423.0501 C 163.0978,421.32419 161.81726,418.76315 162.31833,415.81239 L 162.59671,415.42963 z M 147.23398,421.50165 C 151.13121,422.28109 153.90798,425.4963 157.08144,427.55627 C 156.74738,427.77896 156.2498,427.72677 155.91575,427.78244 C 155.13632,426.61328 153.91146,426.11568 152.57527,426.06001 C 152.01854,424.94652 150.90155,424.44544 149.84373,424.1114 C 149.6767,422.71954 148.22569,422.05143 147.1122,421.60604 L 147.23398,421.50165 z "
     style="fill:#f6d140;fill-opacity:1;stroke:none;stroke-opacity:1"
     id="path3498" />
  <path
     d="M 102.76923,374.85477 L 106.66626,386.5845 L 119.02614,386.6661 L 109.07474,393.99708 L 112.81655,405.77725 L 102.76923,398.5783 L 92.721907,405.77725 L 96.463707,393.99708 L 86.512317,386.6661 L 98.872207,386.5845 L 102.76923,374.85477 z "
     style="fill:#f6d140;fill-opacity:1;stroke:none;stroke-width:1.70000005;stroke-linecap:round;stroke-linejoin:miter;stroke-miterlimit:4;stroke-dashoffset:0;stroke-opacity:1"
     id="path6605" />
</svg>
