<?xml version="1.0" encoding="UTF-8" standalone="no"?>
<!-- Created with Inkscape (http://www.inkscape.org/) -->
<svg
   xmlns:svg="http://www.w3.org/2000/svg"
   xmlns="http://www.w3.org/2000/svg"
   version="1.0"
   width="115"
   height="95"
   id="svg7877">
  <defs
     id="defs7879" />
  <path
     d="M 57.24219,2.49637 C 69.42136,26.44704 87.1125,46.13324 111.45313,62.49974 L 111.45313,92 C 83.72578,73.44488 73.19952,62.06368 57.29297,42.93777 C 42.36822,62.9529 22.72287,78.90578 3,92 L 3,62.49974 C 25.64789,45.88716 44.89952,26.75477 57.24219,2.49637 z "
     style="fill:#fa1f1d;fill-opacity:1;fill-rule:evenodd;stroke:none;stroke-width:1px;stroke-linecap:butt;stroke-linejoin:miter;stroke-opacity:1"
     id="path3234" />
  <path
     d="M 104.72504,80.34022 C 85.41018,67.30033 70.4513,51.24477 57.23828,33.98053 C 43.83302,51.10142 29.27343,67.42316 9.79596,80.34022 L 9.79596,65.88872 C 29.24688,50.52511 45.36773,32.5879 57.23828,11.99393 C 68.52791,30.74013 83.07809,48.27344 104.72504,65.88872 L 104.72504,80.34022 z "
     style="fill:#f6d140;fill-opacity:1;fill-rule:evenodd;stroke:none;stroke-width:1px;stroke-linecap:butt;stroke-linejoin:miter;stroke-opacity:1"
     id="path3238" />
</svg>
